<svg xmlns="http://www.w3.org/2000/svg" xmlns:xlink="http://www.w3.org/1999/xlink" viewBox="0 0 116.2 78.44"><defs><style>.a{fill:url(#a);}.b{fill:url(#b);}.c{fill:url(#c);}.d{fill:url(#d);}.e{fill:url(#e);}.f{fill:url(#f);}.g{fill:url(#g);}.h{fill:url(#h);}</style><linearGradient id="a" x1="361.59" y1="302.63" x2="361.98" y2="302.63" gradientUnits="userSpaceOnUse"><stop offset="0" stop-color="#1c3f86"/><stop offset="1" stop-color="#a4579e"/></linearGradient><linearGradient id="b" x1="386.1" y1="278.44" x2="386.13" y2="278.44" xlink:href="#a"/><linearGradient id="c" x1="453.69" y1="302.67" x2="454.06" y2="302.67" xlink:href="#a"/><linearGradient id="d" x1="458.96" y1="274.83" x2="459.01" y2="274.83" xlink:href="#a"/><linearGradient id="e" x1="441.81" y1="234.54" x2="442.11" y2="234.54" xlink:href="#a"/><linearGradient id="f" x1="349.02" y1="268.56" x2="465.22" y2="268.56" xlink:href="#a"/><linearGradient id="g" x1="33.11" y1="35.52" x2="47.61" y2="35.52" xlink:href="#a"/><linearGradient id="h" x1="69.09" y1="35.52" x2="83.58" y2="35.52" xlink:href="#a"/></defs><path class="a" d="M361.7,302.66l.13,0,.11,0c.09,0,.05,0-.35.06h.11Z" transform="translate(-349.02 -229.35)"/><path class="b" d="M386.1,278.44Z" transform="translate(-349.02 -229.35)"/><path class="c" d="M454.06,302.65c-.66,0-.29,0,0,0Z" transform="translate(-349.02 -229.35)"/><path class="d" d="M459,275v-.1C459,274.76,458.92,274.41,459,275Z" transform="translate(-349.02 -229.35)"/><path class="e" d="M441.81,234.54a1.35,1.35,0,0,0,.3,0h-.3Z" transform="translate(-349.02 -229.35)"/><path class="f" d="M463.89,273.47c-1.08-8-2.07-16.16-4.46-23.93a48.9,48.9,0,0,0-5.93-13.18,13.88,13.88,0,0,0-9.52-6.62,17.45,17.45,0,0,0-11.92,1.88l-.7.36-.21.09-.12,0c-.47.16-.93.31-1.4.43-.26.07-.52.12-.78.17l-.38.07c-.55.05-1.09.09-1.64.09a2.55,2.55,0,1,0,0,5.09h.36a16.76,16.76,0,0,0,7.24-1.83c.48-.25,1-.51,1.45-.73h0l.41-.16c.29-.11.59-.21.89-.3a14.57,14.57,0,0,1,1.45-.35l.51-.08.47,0c.41,0,.82,0,1.22,0s.65.07,1,.1c-.07,0,0,0,.14,0l.14,0h0l.14,0,.52.1c.38.09.75.19,1.12.3s.63.21.94.33l.19.09.21.09a14.1,14.1,0,0,1,1.32.72c.24.15.47.31.71.48l.22.21c.25.26.5.54.73.82l.21.25c.18.25.37.5.54.76a35.23,35.23,0,0,1,2.92,5.14l.39.85.18.41.07.18c0,.07.12.28.14.33s.15.35.21.52c.15.37.29.73.42,1.09q.87,2.34,1.56,4.74a93.43,93.43,0,0,1,2.67,12.62q.53,3.52,1,7c.14,1,.29,2.05.43,3.08a2.7,2.7,0,0,0,0,.28h0l.09.63.18,1.41c.37,3,.7,6,.81,9,0,1.17.05,2.35,0,3.52,0,.55-.06,1.09-.12,1.64,0,.24-.05.49-.08.74l0,.24a30,30,0,0,1-1.62,6c-.18.49-.38,1-.57,1.46l-.12.24q-.14.29-.3.57c-.1.17-.2.33-.31.49a.61.61,0,0,1-.07.1,7.07,7.07,0,0,1-.71.74l-.09.07c-.12.08-.23.17-.36.24s-.31.18-.47.27l-.08,0a7.89,7.89,0,0,1-1,.28l-.12,0h.17l-.6.05a10.39,10.39,0,0,1-1.12,0h-.07l-.66-.14a9.71,9.71,0,0,1-1.29-.42l-.14-.06c-.24-.11-.47-.22-.7-.35a15.83,15.83,0,0,1-1.36-.82c-.21-.14-.41-.29-.61-.44l-.29-.23a24,24,0,0,1-2.73-2.7l-.65-.78-.1-.13-.27-.36c-.46-.63-.9-1.26-1.31-1.91a41.59,41.59,0,0,1-2.44-4.44c-.2-.4-.39-.81-.57-1.22-.09-.2-.18-.4-.26-.6a1.21,1.21,0,0,1-.08-.19l-.07-.16q-.57-1.41-1.08-2.85c-.36-1-.69-2.07-1-3.11a9,9,0,0,0-1.48-3.62,4.15,4.15,0,0,0-4-1.23,18,18,0,0,0-3.05,1.51l-.4.15-.76.25c-.48.13-1,.22-1.44.31l-.29,0c-.25,0-.51,0-.76,0s-.45,0-.67,0a4,4,0,0,0-.83-.07l-.18,0-.64-.13a14.19,14.19,0,0,1-1.44-.46l-.1,0-.16-.09c-.21-.09-.4-.2-.6-.3a13.76,13.76,0,0,1-1.31-.83l-.17-.13h0l-.6-.53a3.07,3.07,0,0,0-2-.89c-.25,0-.49,0-.73,0H398.78a3.21,3.21,0,0,0-2.37.82l-.67.6-.06,0-.37.27a13,13,0,0,1-1.58.92l-.29.15h-.06c-.29.11-.59.22-.89.31l-.73.19c-.15,0-.3.07-.46.09l-.28.05c-.28.05-.24,0,.12,0a4.83,4.83,0,0,1-1.7.07l-.77-.05h-.09L388,279a13.09,13.09,0,0,1-1.73-.49l-.38-.15.21.08-.27-.11c-.35-.16-.7-.34-1-.53a7,7,0,0,0-2-.93,4.14,4.14,0,0,0-3,.45c-1.6.92-1.92,2.57-2.4,4.2-.37,1.28-.78,2.54-1.23,3.79-.2.56-.41,1.12-.62,1.67l-.33.8,0,.1-.19.42a43.9,43.9,0,0,1-3,5.73c-.5.81-1,1.59-1.6,2.35l-.11.14c-.12.15-.23.3-.36.45-.28.34-.57.68-.87,1-.53.58-1.08,1.14-1.67,1.67l-.8.68-.08.06-.38.28a17.66,17.66,0,0,1-1.66,1l-.77.37-.35.14a10.78,10.78,0,0,1-1.48.4l-.24.05-.27,0,.16,0c-.22,0-.45,0-.68,0s-.45,0-.67,0l-.19,0c-.21,0-.43-.1-.64-.16l-.24-.08c-.34-.19-.68-.37-1-.59l-.14-.12a5.78,5.78,0,0,1-.49-.5l-.15-.16c-.12-.18-.25-.36-.36-.55s-.25-.45-.36-.68-.08-.18-.13-.27l0-.12a35.69,35.69,0,0,1-1.33-3.76,25.84,25.84,0,0,1-.81-3.69h0c0-.11,0-.22,0-.32,0-.35-.07-.69-.1-1,0-.68-.08-1.37-.1-2a75.82,75.82,0,0,1,.7-10.32c.13-1.11.28-2.22.42-3.32h0l.06-.45c0-.26.08-.51.11-.77.09-.67.19-1.35.28-2,.42-2.9.82-5.81,1.28-8.71a84.42,84.42,0,0,1,3.54-14.47q.47-1.33,1-2.64l.24-.58c-.32.8,0,.06,0-.13.16-.36.33-.73.5-1.09a40.43,40.43,0,0,1,1.91-3.63,27.79,27.79,0,0,1,1.6-2.4l.28-.35.49-.56c.14-.15.29-.29.43-.43.33-.23.66-.45,1-.65s.54-.3.81-.43l.52-.25h0l.06,0a14.57,14.57,0,0,1,2.58-.73l.31,0,.6-.06a16.45,16.45,0,0,1,1.72,0l.45,0h.18l.54.12a13.56,13.56,0,0,1,2,.54l.5.19h.05l.06,0,.83.4c.81.41,1.61.81,2.46,1.15a16.63,16.63,0,0,0,4.63,1c.67.05,1.34,0,2,0h21a2.55,2.55,0,1,0,0-5.09H387.5a17.73,17.73,0,0,1-1.79-.1h0l-.1,0-.44-.08c-.3-.06-.59-.13-.88-.21s-.65-.2-1-.31L383,232l-.36-.16a29,29,0,0,0-4.08-1.79,16.89,16.89,0,0,0-4-.71,16.34,16.34,0,0,0-9.95,2.72,17.41,17.41,0,0,0-4.82,5.65c-3.84,6.4-5.95,13.85-7.31,21.13-1,5.36-1.69,10.8-2.41,16.2-.48,3.61-.93,7.23-1.06,10.87a37,37,0,0,0,.55,8.34,35.33,35.33,0,0,0,2.47,7.64,9.64,9.64,0,0,0,4.37,4.78,10.49,10.49,0,0,0,7.1.75,17.09,17.09,0,0,0,7.24-4,31.66,31.66,0,0,0,6.49-8.25,58.63,58.63,0,0,0,5.24-12.88,16.54,16.54,0,0,0,3.17,1.31,14.51,14.51,0,0,0,7.79.12,14.93,14.93,0,0,0,5.76-3H415a14.54,14.54,0,0,0,10.47,3.46,16.16,16.16,0,0,0,6.25-1.86l.39,1.35c2,6.47,4.86,12.93,9.48,18,3,3.21,6.93,5.94,11.42,6.11a9.58,9.58,0,0,0,8.88-5.28,32.24,32.24,0,0,0,3.25-12.33C465.5,284.61,464.64,279,463.89,273.47Zm-28-38.09c.44-.19.1,0,0,0Zm-76.76,67h0C358.74,302.23,358.92,302.27,359.13,302.37Zm22.24-20.67,0,0Zm1.41-.44c0-.05,0-.09.07-.1Zm48.73.12c-.15-.24.16.23,0,0Z" transform="translate(-349.02 -229.35)"/><circle class="g" cx="40.36" cy="35.52" r="7.25"/><circle class="h" cx="76.33" cy="35.52" r="7.25"/></svg>