<svg xmlns="http://www.w3.org/2000/svg" xmlns:xlink="http://www.w3.org/1999/xlink" viewBox="0 0 173.76 27.77"><defs><style>.a,.b{isolation:isolate;}.b{font-size:25px;font-family:EvilEmpire, Evil Empire;}.b,.h{fill:#fff;}.c{fill:url(#a);}.d{fill:url(#b);}.e{fill:url(#c);}.f{fill:url(#d);}.g{fill:url(#e);}</style><linearGradient id="a" x1="2366.93" y1="-10782.1" x2="2367.93" y2="-10782.1" gradientTransform="matrix(0.14, 0, 0, -0.02, 5.3, 41.39)" gradientUnits="userSpaceOnUse"><stop offset="0" stop-color="#21376a"/><stop offset="1" stop-color="#8c438e"/></linearGradient><linearGradient id="b" x1="326.2" y1="313.19" x2="326.2" y2="313.19" gradientTransform="matrix(1, 0, 0, -1, 13.09, 614.05)" xlink:href="#a"/><linearGradient id="c" x1="2529.55" y1="-28408.87" x2="2529.55" y2="-28408.87" gradientTransform="matrix(0.13, 0, 0, -0.01, 37.81, 32.41)" xlink:href="#a"/><linearGradient id="d" x1="18663.25" y1="-1853.83" x2="18664.25" y2="-1853.83" gradientTransform="matrix(0.02, 0, 0, -0.12, 39.79, 85.54)" xlink:href="#a"/><linearGradient id="e" x1="3069.28" y1="-79638.75" x2="3070.28" y2="-79638.75" gradientTransform="matrix(0.11, 0, 0, 0, 33.64, 4.66)" xlink:href="#a"/></defs><g class="a"><text class="b" transform="translate(55.8 22.67)">FunnyGames</text></g><path class="c" d="M330.67,309.41h.09l-.12,0Z" transform="translate(-326.2 -283.55)"/><path class="d" d="M339.29,300.86" transform="translate(-326.2 -283.55)"/><path class="e" d="M363.27,309.41C363,309.42,363.17,309.42,363.27,309.41Z" transform="translate(-326.2 -283.55)"/><path class="f" d="M365,299.65v0C365,299.56,365,299.44,365,299.65Z" transform="translate(-326.2 -283.55)"/><path class="g" d="M359,285.36h0Z" transform="translate(-326.2 -283.55)"/><path class="h" d="M366.74,299.11a52.62,52.62,0,0,0-1.57-8.45,17.23,17.23,0,0,0-2.09-4.65,4.93,4.93,0,0,0-3.37-2.34,6.15,6.15,0,0,0-4.2.66l-.25.13-.07,0-.05,0c-.16.05-.32.11-.49.15l-.27.06-.14,0-.58,0a.9.9,0,0,0-.9.9.91.91,0,0,0,.9.9h.13a5.81,5.81,0,0,0,2.55-.65l.52-.26h0l.14-.05.32-.11.51-.12.18,0h.59l.34,0h.16l.19,0a2.85,2.85,0,0,1,.39.11l.33.11.07,0,.07,0a4.23,4.23,0,0,1,.47.25l.25.17.08.07.25.29.08.09.19.27a12.53,12.53,0,0,1,1,1.82c.05.09.09.19.14.3l.06.14,0,.06,0,.12a1.34,1.34,0,0,0,.07.18l.15.39c.2.55.39,1.11.55,1.67a33.65,33.65,0,0,1,.94,4.46l.36,2.48.15,1.09a.36.36,0,0,0,0,.1h0l0,.22.06.5c.13,1.05.25,2.1.29,3.16,0,.42,0,.83,0,1.25,0,.19,0,.38,0,.57l0,.26s0,.06,0,.09a11,11,0,0,1-.57,2.11c-.07.17-.14.34-.2.52l0,.08-.11.2a1.42,1.42,0,0,1-.11.18l0,0a3.19,3.19,0,0,1-.26.26l0,0-.12.08-.17.09,0,0-.34.1h0l-.21,0h-.42l-.24-.05-.45-.15-.05,0-.25-.12-.48-.29-.21-.16-.1-.08a8.7,8.7,0,0,1-1-.95l-.23-.28,0,0-.1-.13a7.38,7.38,0,0,1-.46-.68,14.81,14.81,0,0,1-.87-1.56l-.2-.44-.09-.2,0-.07,0-.06c-.13-.33-.26-.67-.38-1s-.25-.73-.35-1.1a3.1,3.1,0,0,0-.53-1.27,1.46,1.46,0,0,0-1.42-.44,6,6,0,0,0-1.08.53l-.14.06-.27.08-.51.12h-.6a1,1,0,0,0-.3,0h-.06l-.23-.05-.5-.16,0,0-.06,0-.21-.1a4.53,4.53,0,0,1-.46-.3l-.06,0h0l-.22-.18a1.06,1.06,0,0,0-.7-.32h-6a1.14,1.14,0,0,0-.83.29l-.24.21,0,0-.13.09a4.56,4.56,0,0,1-.56.33l-.1.05h0l-.31.1-.26.07-.16,0H341c-.1,0-.09,0,0,0a1.52,1.52,0,0,1-.6,0l-.27,0h0l-.2,0a4.63,4.63,0,0,1-.61-.17l-.13-.06.07,0-.09,0c-.13,0-.25-.12-.37-.18a2.2,2.2,0,0,0-.69-.33,1.44,1.44,0,0,0-1.05.16,2.17,2.17,0,0,0-.85,1.48c-.13.45-.27.9-.43,1.34-.07.2-.14.39-.22.59l-.12.28v0l-.06.15a15.66,15.66,0,0,1-1.06,2c-.18.28-.36.56-.56.82l0,.05-.13.16-.31.36a8.21,8.21,0,0,1-.59.59l-.28.24,0,0-.13.1a5.8,5.8,0,0,1-.59.36l-.27.13-.12,0a3.34,3.34,0,0,1-.52.14l-.09,0-.1,0,.06,0h-.55a.9.9,0,0,1-.22-.06l-.09,0-.35-.2-.05,0-.18-.18-.05-.06-.13-.19-.12-.24,0-.1v0a12.34,12.34,0,0,1-.47-1.33,9.41,9.41,0,0,1-.29-1.3h0v-.11c0-.12,0-.24,0-.37s0-.48,0-.72a27.59,27.59,0,0,1,.24-3.64l.15-1.18h0l0-.16,0-.27c0-.24.07-.47.1-.71.15-1,.29-2.05.46-3.08a29.87,29.87,0,0,1,1.24-5.1c.11-.32.23-.63.35-.94l.09-.2c-.11.29,0,0,0,0s.11-.26.17-.39a14.11,14.11,0,0,1,.67-1.28c.18-.29.37-.57.57-.85l.1-.12c0-.07.11-.13.17-.2a1.1,1.1,0,0,1,.16-.15l.35-.23.28-.15.19-.09h0a5.58,5.58,0,0,1,.91-.26l.1,0h.22a3,3,0,0,1,.6,0h.23l.19,0a5.91,5.91,0,0,1,.69.19l.17.07h0l.3.14c.28.15.57.29.86.41a5.78,5.78,0,0,0,1.64.34c.24,0,.47,0,.71,0h7.41a.9.9,0,1,0,0-1.8h-7.69c-.21,0-.42,0-.63,0h0l-.16,0-.31-.08-.34-.11-.1,0-.13-.06a9.24,9.24,0,0,0-1.44-.63,6.07,6.07,0,0,0-1.4-.26,5.74,5.74,0,0,0-3.51,1,5.92,5.92,0,0,0-1.7,2,22.37,22.37,0,0,0-2.59,7.43c-.36,1.9-.6,3.81-.85,5.72-.17,1.28-.33,2.55-.38,3.84a13.19,13.19,0,0,0,.2,2.94,12.16,12.16,0,0,0,.87,2.7,3.38,3.38,0,0,0,1.54,1.69,3.75,3.75,0,0,0,2.51.27,6.11,6.11,0,0,0,2.55-1.41,10.92,10.92,0,0,0,2.29-2.91,20.22,20.22,0,0,0,1.85-4.55,6.47,6.47,0,0,0,1.12.47,5.1,5.1,0,0,0,4.78-1h5.57a5.17,5.17,0,0,0,3.69,1.22,5.67,5.67,0,0,0,2.21-.66c.05.16.09.32.14.48a16.28,16.28,0,0,0,3.34,6.34,6,6,0,0,0,4,2.16,3.41,3.41,0,0,0,3.14-1.86,11.38,11.38,0,0,0,1.15-4.36A29.81,29.81,0,0,0,366.74,299.11Zm-9.88-13.45C357,285.59,356.89,285.65,356.86,285.66Zm-27.09,23.65h0C329.63,309.25,329.69,309.27,329.77,309.31Zm7.85-7.3h0Zm.5-.16s0,0,0,0l0,0Zm17.2,0Z" transform="translate(-326.2 -283.55)"/><circle class="h" cx="14.25" cy="12.52" r="2.56"/><circle class="h" cx="26.94" cy="12.52" r="2.56"/></svg>