<svg xmlns="http://www.w3.org/2000/svg" xmlns:xlink="http://www.w3.org/1999/xlink" viewBox="0 0 228.05 141.7"><defs><style>.a{fill:url(#a);}.b{fill:url(#b);}.c{fill:url(#c);}.d{fill:url(#d);}.e{fill:url(#e);}.f,.h{fill:#fff;}.g,.h{isolation:isolate;}.h{font-size:47.8px;font-family:EvilEmpire, Evil Empire;}</style><linearGradient id="a" x1="751.53" y1="-2563.24" x2="752.53" y2="-2563.24" gradientTransform="matrix(0.39, 0, 0, -0.07, 69.61, 116.61)" gradientUnits="userSpaceOnUse"><stop offset="0" stop-color="#21376a"/><stop offset="1" stop-color="#8c438e"/></linearGradient><linearGradient id="b" x1="292.6" y1="370.02" x2="292.6" y2="370.02" gradientTransform="matrix(1, 0, 0, -1, 93.5, 645.82)" xlink:href="#a"/><linearGradient id="c" x1="797.99" y1="-7545.71" x2="797.99" y2="-7545.71" gradientTransform="matrix(0.37, 0, 0, -0.03, 161.73, 90.57)" xlink:href="#a"/><linearGradient id="d" x1="5976.62" y1="-99.55" x2="5977.62" y2="-99.55" gradientTransform="matrix(0.05, 0, 0, -0.33, 167.32, 239.83)" xlink:href="#a"/><linearGradient id="e" x1="973.03" y1="-22110.16" x2="974.03" y2="-22110.16" gradientTransform="matrix(0.3, 0, 0, -0.01, 149.91, 11.85)" xlink:href="#a"/></defs><path class="a" d="M361.69,300l.14,0,.11,0c.09,0,.05,0-.35,0h.1Z" transform="translate(-293.1 -226.71)"/><path class="b" d="M386.1,275.8" transform="translate(-293.1 -226.71)"/><path class="c" d="M454.06,300C453.4,300.05,453.77,300.05,454.06,300Z" transform="translate(-293.1 -226.71)"/><path class="d" d="M459,272.36v-.1C459,272.13,458.92,271.77,459,272.36Z" transform="translate(-293.1 -226.71)"/><path class="e" d="M441.81,231.89a.76.76,0,0,0,.3,0h0A1.31,1.31,0,0,1,441.81,231.89Z" transform="translate(-293.1 -226.71)"/><path class="f" d="M463.89,270.83c-1.08-8-2.07-16.17-4.46-23.94a48.61,48.61,0,0,0-5.93-13.16A13.94,13.94,0,0,0,444,227.1,17.48,17.48,0,0,0,432.06,229c-.23.12-.46.25-.71.36l-.2.09-.12,0a14.17,14.17,0,0,1-1.4.44l-.77.17-.38.06c-.55.05-1.1.09-1.65.09a2.55,2.55,0,0,0,0,5.09h.36a16.59,16.59,0,0,0,7.24-1.83c.48-.25,1-.5,1.46-.73h0l.4-.15q.45-.16.9-.3a14.62,14.62,0,0,1,1.45-.36l.5-.07.48,0c.41,0,.81,0,1.22,0s.64.08,1,.1c-.07,0,0,0,.15,0l.14,0h0l.15,0,.52.1q.57.14,1.11.3c.32.1.64.21.95.33l.19.09.2.09a13.9,13.9,0,0,1,1.32.72c.25.15.48.31.71.48l.23.21c.25.26.5.54.73.82l.2.25c.18.25.37.5.55.76a36.12,36.12,0,0,1,2.91,5.14l.39.85.18.42.08.17.14.34.21.52.42,1.08q.87,2.34,1.56,4.74A97,97,0,0,1,457.52,262l1,7.05c.15,1,.29,2.05.43,3.08a2.7,2.7,0,0,0,0,.28h0c0,.21.05.42.08.63l.18,1.41c.38,3,.71,6,.82,9,0,1.18.05,2.35,0,3.52,0,.55-.06,1.09-.12,1.64,0,.24-.05.49-.08.74l0,.24a31,31,0,0,1-1.62,6c-.18.48-.38,1-.57,1.45l-.12.24q-.14.29-.3.57c-.09.17-.2.33-.31.5l-.06.09q-.35.39-.72.75l-.09.07-.35.24-.47.26-.09,0a8.46,8.46,0,0,1-1,.29l-.12,0h.18c-.2,0-.4,0-.6,0a10.66,10.66,0,0,1-1.13,0h-.06q-.33-.06-.66-.15a11.38,11.38,0,0,1-1.29-.41l-.14-.06-.7-.35a13.33,13.33,0,0,1-1.36-.83l-.62-.43-.28-.23a23.21,23.21,0,0,1-2.73-2.7c-.23-.26-.44-.52-.66-.79l-.1-.12-.27-.37c-.46-.62-.89-1.26-1.31-1.91a42.44,42.44,0,0,1-2.44-4.43q-.3-.62-.57-1.23c-.09-.2-.18-.4-.26-.6a2.16,2.16,0,0,1-.09-.2l-.06-.15c-.38-.94-.74-1.89-1.08-2.86s-.69-2.06-1-3.1a9.14,9.14,0,0,0-1.48-3.62,4.13,4.13,0,0,0-4-1.23,17,17,0,0,0-3.05,1.51l-.4.15c-.25.09-.51.17-.76.24-.48.14-1,.23-1.44.32l-.29,0c-.25,0-.51,0-.76,0h-.67a3.29,3.29,0,0,0-.83-.07l-.18,0c-.22,0-.43-.08-.64-.14a12,12,0,0,1-1.44-.45l-.1,0-.17-.09-.6-.3a13.62,13.62,0,0,1-1.3-.83l-.17-.13,0,0-.6-.52a3,3,0,0,0-2-.89H398.78a3.22,3.22,0,0,0-2.37.82l-.67.6-.06,0-.37.27a11.83,11.83,0,0,1-1.58.92l-.3.15h-.05c-.3.1-.59.22-.89.31l-.73.19-.46.1-.28,0c-.29,0-.25,0,.11,0a4.62,4.62,0,0,1-1.7.07l-.76,0h-.09l-.58-.11a13.13,13.13,0,0,1-1.73-.5l-.38-.15.21.08-.27-.11a11.31,11.31,0,0,1-1-.53,7.44,7.44,0,0,0-2-.93,4.16,4.16,0,0,0-3,.45c-1.59.93-1.91,2.57-2.39,4.2-.37,1.28-.78,2.54-1.23,3.79-.2.56-.41,1.12-.63,1.67-.1.27-.21.54-.32.8a.63.63,0,0,1,0,.09c-.05.15-.12.29-.18.43a45.84,45.84,0,0,1-3,5.73c-.5.8-1,1.59-1.6,2.35a1.13,1.13,0,0,0-.1.13l-.36.45c-.29.35-.58.68-.87,1a20.36,20.36,0,0,1-1.68,1.67c-.26.24-.52.46-.8.68l-.08.07-.38.27a15,15,0,0,1-1.67,1l-.76.37-.35.13a9.52,9.52,0,0,1-1.48.4l-.25.05-.27.05.17,0c-.23,0-.45,0-.68,0s-.45,0-.67,0l-.19,0c-.21,0-.43-.1-.64-.16l-.24-.08c-.34-.19-.68-.37-1-.59A.75.75,0,0,1,358,299a4.64,4.64,0,0,1-.49-.5l-.15-.16c-.12-.19-.25-.37-.36-.56a7.12,7.12,0,0,1-.36-.67c0-.09-.08-.18-.13-.27l0-.12a38.17,38.17,0,0,1-1.34-3.76,27.25,27.25,0,0,1-.8-3.69h0l0-.32c0-.34-.07-.69-.1-1-.06-.69-.09-1.37-.1-2.06a74,74,0,0,1,.7-10.31q.19-1.66.42-3.33h0l.06-.45c0-.26.07-.52.11-.77.09-.68.18-1.35.28-2,.41-2.91.81-5.82,1.28-8.72a83.61,83.61,0,0,1,3.54-14.46q.47-1.34,1-2.64l.24-.58c-.32.8,0,.06,0-.13l.5-1.1a39.25,39.25,0,0,1,1.91-3.63c.49-.82,1-1.62,1.6-2.4.09-.11.18-.23.28-.34s.32-.38.49-.56.29-.29.44-.43a11.43,11.43,0,0,1,1-.65c.26-.16.53-.3.81-.44l.52-.24h0l.07,0a14.26,14.26,0,0,1,2.57-.74l.31,0,.6-.05a12.34,12.34,0,0,1,1.72,0l.46,0a.48.48,0,0,0,.17,0c.19,0,.37.08.55.12a13.44,13.44,0,0,1,1.95.54l.51.19h.05l.06,0,.83.4c.8.42,1.62.81,2.46,1.15a16.28,16.28,0,0,0,4.63,1c.67,0,1.34,0,2,0h21a2.55,2.55,0,0,0,0-5.09H387.5a17.9,17.9,0,0,1-1.79-.1h0l-.09,0-.45-.08c-.29-.06-.59-.13-.88-.21s-.64-.2-1-.31l-.29-.11-.35-.16a29.59,29.59,0,0,0-4.09-1.78,17,17,0,0,0-4-.72,16.3,16.3,0,0,0-9.94,2.73,17.25,17.25,0,0,0-4.82,5.65c-3.85,6.39-5.95,13.85-7.32,21.13-1,5.36-1.68,10.79-2.4,16.2-.48,3.61-.93,7.23-1.07,10.87a38.21,38.21,0,0,0,.55,8.34,35.5,35.5,0,0,0,2.47,7.64,9.66,9.66,0,0,0,4.38,4.78,10.49,10.49,0,0,0,7.1.75,17,17,0,0,0,7.23-4,31.45,31.45,0,0,0,6.49-8.25,58.23,58.23,0,0,0,5.24-12.89,16.58,16.58,0,0,0,3.17,1.32,14.51,14.51,0,0,0,7.79.12,14.86,14.86,0,0,0,5.76-3H415a14.56,14.56,0,0,0,10.46,3.46,16.11,16.11,0,0,0,6.25-1.86c.13.45.26.9.4,1.35,2,6.47,4.86,12.93,9.48,18,2.94,3.21,6.93,5.94,11.41,6.11a9.6,9.6,0,0,0,8.89-5.28,32.42,32.42,0,0,0,3.25-12.33C465.5,282,464.64,276.33,463.89,270.83Zm-28-38.09C436.33,232.54,436,232.7,435.89,232.74Zm-76.76,67h0C358.74,299.59,358.92,299.63,359.13,299.73Zm22.24-20.68,0,0,0,0Zm1.41-.44a.2.2,0,0,1,.07-.1.3.3,0,0,0-.06.11Zm48.73.12C431.36,278.49,431.67,279,431.51,278.73Z" transform="translate(-293.1 -226.71)"/><circle class="f" cx="96.29" cy="35.51" r="7.25"/><circle class="f" cx="132.26" cy="35.51" r="7.25"/><g class="g"><text class="h" transform="translate(2.5 131.95)">FunnyGames</text></g></svg>