<svg xmlns="http://www.w3.org/2000/svg" viewBox="0 0 154.59 139.84"><defs><style>.a{fill:#c8436b;}</style></defs><path class="a" d="M509.12,266.65a1.17,1.17,0,0,0-.05-.2,1.51,1.51,0,0,0,0-.3,45.6,45.6,0,0,0-76.83-25.5c-15.7-14.84-40.12-17.47-58-4.62-17.41,12.49-24.34,35.92-15.26,55.57,5.14,11.13,15.52,19.49,24,28.07,10.25,10.4,20.54,20.77,30.75,31.22,4.85,5,9.6,11,15.08,15.27,3.06,2.41,5.31,1.47,7.91-1.09,10.19-10,20.22-20.22,30.33-30.33,10.71-10.7,22.52-21,32.15-32.65A45.87,45.87,0,0,0,509.12,266.65Z" transform="translate(-354.93 -227.72)"/></svg>