<svg xmlns="http://www.w3.org/2000/svg" viewBox="0 0 239 216.3"><defs><style>.a{fill:#fff;}</style></defs><path class="a" d="M530.7,260.22a1.73,1.73,0,0,0-.07-.31,3.44,3.44,0,0,0,0-.46A70.5,70.5,0,0,0,411.79,220,70.26,70.26,0,0,0,298.46,298.8c8,17.22,24,30.14,37.09,43.41,15.85,16.08,31.76,32.11,47.53,48.26A258.76,258.76,0,0,0,406.4,414.1c4.74,3.73,8.21,2.26,12.24-1.69,15.76-15.48,31.27-31.27,46.9-46.9C482.09,349,500.35,333.1,515.24,315A70.87,70.87,0,0,0,530.7,260.22Zm-19.61,37.31a147.34,147.34,0,0,1-24.49,27.8l-26.25,26.25c-16.2,16.2-32.17,32.69-48.64,48.6L338,325.41c-11.49-11.63-24.5-22.56-29.73-38.6a55.72,55.72,0,0,1,6.81-47.73,57.39,57.39,0,0,1,79.64-15.7,59.74,59.74,0,0,1,5.55,4.23c3.3,2.94,6.28,8.62,11.12,8.93,5.25.33,8.37-5.75,11.81-8.81a57,57,0,0,1,47.93-13.39,57.67,57.67,0,0,1,39.95,83.19Z" transform="translate(-292.38 -199.96)"/></svg>